<?xml version="1.0" encoding="UTF-8"?>
<svg width="512px" height="512px" viewBox="0 0 512 512" version="1.1" xmlns="http://www.w3.org/2000/svg"
     xmlns:xlink="http://www.w3.org/1999/xlink">
    <g>
        <path
            d="m261.4375 511.441406 138.851562-54.941406c54.765626-44.929688 89.710938-113.132812 89.710938-189.5 0-135.308594-109.691406-245-245-245s-245 109.691406-245 245c0 135.3125 109.691406 245 245 245 5.527344 0 11.003906-.199219 16.4375-.558594zm0 0"
            fill="#27a3ff"></path>
        <path
            d="m388.742188 318.949219c1.953124-23.644531-1.648438-47.335938-12.117188-68.628907-27.042969-55.011718-20.839844-59.003906-21.679688-113.601562 0-11.15625-9.042968-20.195312-20.195312-20.195312-11.15625 0-20.195312 9.039062-20.195312 20.195312 0 7.203125 0 203.832031 0 203.0625 0 3.148438-.335938 6.222656-.957032 9.1875v29.070312c0 24.496094-19.929687 44.429688-44.425781 44.429688-16.269531 0-72.375 0-110.550781 0 16.980468 23.617188 40.214844 42.113281 67.179687 53.3125.167969.066406.335938.136719.503907.207031 16.222656 6.855469 28.609374 19.78125 35.132812 35.453125 52.535156-3.480468 100.546875-23.507812 138.851562-54.9375l-15.050781-55.292968c-2.148437-7.902344-2.90625-16.117188-2.238281-24.277344zm0 0"
            fill="#f9cfa9"></path>
        <path
            d="m83.609375 117.230469-6.152344-5.699219c-9.480469-8.789062-24.429687-8.21875-33.214843 1.265625-8.785157 9.480469-8.214844 24.429687 1.265624 33.214844l38.101563 35.304687zm0 0"
            fill="#f9cfa9"></path>
        <path
            d="m285.621094 0h-172.714844c-16.757812 0-30.390625 13.636719-30.390625 30.394531v363.980469c0 16.757812 13.632813 30.394531 30.390625 30.394531h172.714844c16.757812 0 30.394531-13.636719 30.394531-30.394531v-363.980469c0-16.757812-13.636719-30.394531-30.394531-30.394531zm0 0"
            fill="#3d4ec6"></path>
        <path
            d="m141.035156 22.539062c-1.644531-2.445312-2.605468-5.386718-2.605468-8.554687 0-6.21875 3.703124-11.5625 9.015624-13.984375h-34.539062c-16.785156 0-30.394531 13.609375-30.394531 30.394531v363.980469c0 16.785156 13.609375 30.390625 30.394531 30.390625h36.71875v-375.589844c0-9.558593-3.253906-18.703125-8.589844-26.636719zm0 0"
            fill="#2b3894"></path>
        <path
            d="m100.109375 191.976562v202.398438c0 7.070312 5.730469 12.800781 12.796875 12.800781h172.714844c7.066406 0 12.796875-5.730469 12.796875-12.800781 0-6.945312 0-108.335938 0-202.398438zm0 0"
            fill="#e6f7fe"></path>
        <path
            d="m169.675781 253.03125c0 11.074219-8.976562 20.050781-20.050781 20.050781s-20.050781-8.976562-20.050781-20.050781 8.976562-20.054688 20.050781-20.054688 20.050781 8.980469 20.050781 20.054688zm0 0"
            fill="#3d4ec6"></path>
        <path
            d="m169.675781 327.382812c0 11.074219-8.976562 20.054688-20.050781 20.054688s-20.050781-8.980469-20.050781-20.054688c0-11.074218 8.976562-20.050781 20.050781-20.050781s20.050781 8.976563 20.050781 20.050781zm0 0"
            fill="#3d4ec6"></path>
        <g>
            <path
                d="m231.566406 244.695312h-28.46875c-4.140625 0-7.5-3.359374-7.5-7.5 0-4.144531 3.359375-7.5 7.5-7.5h28.46875c4.140625 0 7.5 3.355469 7.5 7.5 0 4.140626-3.359375 7.5-7.5 7.5zm0 0"
                fill="#11dfef"></path>
            <path
                d="m260.035156 276.367188h-56.9375c-4.144531 0-7.5-3.359376-7.5-7.5 0-4.144532 3.355469-7.5 7.5-7.5h56.9375c4.140625 0 7.5 3.355468 7.5 7.5 0 4.140624-3.359375 7.5-7.5 7.5zm0 0"
                fill="#11dfef"></path>
            <path
                d="m231.566406 319.046875h-28.46875c-4.140625 0-7.5-3.355469-7.5-7.5s3.359375-7.5 7.5-7.5h28.46875c4.140625 0 7.5 3.355469 7.5 7.5s-3.359375 7.5-7.5 7.5zm0 0"
                fill="#11dfef"></path>
            <path
                d="m260.035156 350.71875h-56.9375c-4.144531 0-7.5-3.355469-7.5-7.5 0-4.140625 3.355469-7.5 7.5-7.5h56.9375c4.140625 0 7.5 3.359375 7.5 7.5 0 4.144531-3.359375 7.5-7.5 7.5zm0 0"
                fill="#11dfef"></path>
        </g>
        <path
            d="m285.519531 17.597656h-25.667969c-2.421874 0-4.382812 1.960938-4.382812 4.378906 0 5.808594-4.75 10.558594-10.554688 10.558594h-91.496093c-5.808594 0-10.558594-4.75-10.558594-10.558594 0-2.417968-1.960937-4.378906-4.382813-4.378906h-25.667968c-7.070313 0-12.800782 5.730469-12.800782 12.796875v163.582031h198.3125v-163.582031c0-7.066406-5.730468-12.796875-12.800781-12.796875zm0 0"
            fill="#f948b4"></path>
        <path
            d="m285.519531 17.597656h-25.667969c-2.421874 0-4.382812 1.960938-4.382812 4.378906 0 5.808594-4.75 10.558594-10.554688 10.558594h-50.464843l103.871093 130.203125v-132.34375c0-7.066406-5.730468-12.796875-12.800781-12.796875zm0 0"
            fill="#fc7acd"></path>
        <path
            d="m117.816406 241.191406c-7.730468 8.339844-20.761718 8.839844-29.105468 1.109375l-34.496094-31.964843c-8.34375-7.730469-8.839844-20.761719-1.109375-29.105469s20.761719-8.839844 29.105469-1.109375l34.496093 31.964844c8.339844 7.730468 8.839844 20.761718 1.109375 29.105468zm0 0"
            fill="#f9cfa9"></path>
        <path
            d="m117.816406 297.363281c-7.730468 8.34375-20.761718 8.839844-29.105468 1.109375l-34.496094-31.964844c-8.34375-7.730468-8.839844-20.761718-1.109375-29.101562 7.730469-8.34375 20.761719-8.839844 29.105469-1.109375l34.496093 31.964844c8.339844 7.730469 8.839844 20.757812 1.109375 29.101562zm0 0"
            fill="#f9cfa9"></path>
        <path
            d="m117.816406 353.539062c-7.730468 8.34375-20.761718 8.839844-29.105468 1.109376l-34.496094-31.964844c-8.34375-7.730469-8.839844-20.761719-1.109375-29.105469s20.761719-8.839844 29.105469-1.109375l34.496093 31.964844c8.339844 7.730468 8.839844 20.761718 1.109375 29.105468zm0 0"
            fill="#f9cfa9"></path>
    </g>
</svg>
